# xmcd
#
# Track frame offsets:
#	150
#	21273
#	43871
#	69919
#	80025
#	101723
#	119429
#	144568
#	155559
#	175822
#	195458
#	213352
#	231657
#
# Disc length: 3387 seconds
#
# Revision: 1
# Processed by: cddbd v1.5.2PL0 Copyright (c) Steve Scherf et al.
# Submitted via: audiograbber 1.83.01
#
DISCID=bc0d390d
DTITLE=RKO - Sir Reginald Rides Again
DYEAR=2007
DGENRE=Blues
TTITLE0=Sinner's Prayer (Lowell Fulson)
TTITLE1=All My Lovin' (Rush/Dixon)
TTITLE2=Dangerous Mood (K. Moore)
TTITLE3=El Solo Toro (Trad. Arranged by RKO)
TTITLE4=Milk Cow's Calf Blues (Trad. Arranged by RKO)
TTITLE5=Drivin' Wheel (T-Bone Burnett)
TTITLE6=Blues Until I Die (Kent Overaker)
TTITLE7=As Long As I Have You (Little Walter)
TTITLE8=Same Blues All Over The World (Kent Overaker)
TTITLE9=Cross Cut Saw (R.G. Ford)
TTITLE10=Can't Hold Out (Elmore James)
TTITLE11=Funny Paper Blues (David Graham)
TTITLE12=Keep Your Big Mouth Shut (Trad. Arranged by RKO)
EXTD=Kent Overaker - Guitar/Vox\nDavid Graham - Harmonica/Vox\nMike Horton - Gu
EXTD=itar\nSteve Bowersox - Bass\nVictor Kinchion - Drums
EXTT0=
EXTT1=
EXTT2=
EXTT3=
EXTT4=
EXTT5=
EXTT6=
EXTT7=
EXTT8=
EXTT9=
EXTT10=
EXTT11=
EXTT12=
PLAYORDER=
